<svg viewBox="0 0 423.1 108.6" xmlns="http://www.w3.org/2000/svg"><style>.st0{fill:#004380}</style><path class="st0" d="M199.8 27.4H220l5.8 32.2h.1l5.7-32.2H252v54.4h-13.3V41.3h-.1l-7.6 40.5h-10.2l-7.5-40.5h-.1v40.5h-13.3V27.4zm58.2 0h32.2V39h-18v9.3H289v11h-17v10.9H291v11.6H258zm38 0h22.2c10.8 0 15 6.1 15 14.5 0 7.3-2.9 12-9.3 13 6.7.7 8.9 5 8.9 12.3v4.6c0 2.8 0 6.4.6 7.5.4.6.7 1.2 1.6 1.7v.8h-15c-1.4-2.9-1.4-8.2-1.4-10.4v-3.6c0-6.2-1.2-7.8-4.6-7.8h-3.8v21.8h-14.1zm14.2 23h2.8c4 0 6-2.6 6-6.5 0-4.5-1.8-6.3-6-6.3h-2.8v12.8zm38.4-23h17.9l13.2 54.4h-15l-1.5-9.6h-11.3l-1.4 9.5h-15.1zm9 11.1h-.1l-3.9 23h8zm24-11h14v20.8h.2l10.5-20.9h15.1l-13.7 23.8 15.4 30.5h-16.2l-8.3-18.9-3 4.6v14.3h-14zM0 0v108.6h159.3V0zm33 74.6h-8.6l-10-20.4 10-20.2H33a50.5 50.5 0 00-4.3 20.3c0 7.2 1.6 14 4.3 20.3zm3.2 0a47.7 47.7 0 01-4.5-20.3c0-7.3 1.7-14.1 4.6-20.3H46a39 39 0 00-5.7 20.3c0 7.4 2 14.3 5.7 20.2zm43.4 16a36.2 36.2 0 110-72.5 36.2 36.2 0 010 72.4zm33.4-16a39 39 0 000-40.6h9.8a47.6 47.6 0 010 40.6zm21.7 0H126a50.5 50.5 0 000-40.6h8.7l9.9 20.2z"/><path class="st0" d="M79.5 26.8a27.5 27.5 0 100 55 27.5 27.5 0 000-55zm-4.7 47.8H63.2V34h11.6zm21.6 0H84.8l-9.9-20.4L84.8 34h11.6l-9.9 20.4z"/></svg>